<svg width="25" height="26" viewBox="0 0 25 26" fill="none" xmlns="http://www.w3.org/2000/svg">
<path d="M24.4997 13.2719C24.4997 12.2651 24.418 11.5304 24.2412 10.7686H12.7446V15.3127H19.4929C19.3569 16.442 18.6222 18.1427 16.9895 19.2855L16.9666 19.4376L20.6016 22.2536L20.8535 22.2788C23.1663 20.1427 24.4997 16.9998 24.4997 13.2719Z" fill="#4285F4"/>
<path d="M12.7447 25.2445C16.0508 25.2445 18.8263 24.156 20.8535 22.2785L16.9896 19.2853C15.9556 20.0064 14.5678 20.5098 12.7447 20.5098C9.50664 20.5098 6.75836 18.3738 5.77868 15.4214L5.63508 15.4336L1.85534 18.3588L1.80591 18.4962C3.81949 22.4961 7.95556 25.2445 12.7447 25.2445Z" fill="#34A853"/>
<path d="M5.77886 15.4214C5.52036 14.6595 5.37076 13.8431 5.37076 12.9996C5.37076 12.156 5.52036 11.3397 5.76526 10.5778L5.75841 10.4155L1.93131 7.44336L1.80609 7.50292C0.976196 9.1628 0.5 11.0268 0.5 12.9996C0.5 14.9724 0.976196 16.8362 1.80609 18.4961L5.77886 15.4214Z" fill="#FBBC05"/>
<path d="M12.7447 5.48955C15.044 5.48955 16.595 6.48274 17.4794 7.31273L20.9351 3.93856C18.8128 1.96577 16.0508 0.754883 12.7447 0.754883C7.95556 0.754883 3.81949 3.50316 1.80591 7.50313L5.76508 10.578C6.75836 7.62563 9.50664 5.48955 12.7447 5.48955Z" fill="#EA4335"/>
</svg>
