<svg width="21" height="16" viewBox="0 0 21 16" fill="none" xmlns="http://www.w3.org/2000/svg">
<path fill-rule="evenodd" clip-rule="evenodd" d="M12.875 3.375C12.875 4.68668 11.8117 5.75 10.5 5.75C9.18832 5.75 8.125 4.68668 8.125 3.375C8.125 2.06332 9.18832 1 10.5 1C11.8117 1 12.875 2.06332 12.875 3.375Z" fill="#F9CB73" stroke="black" stroke-width="1.5" stroke-linecap="round" stroke-linejoin="round"/>
<path fill-rule="evenodd" clip-rule="evenodd" d="M15.25 11.7748C15.25 13.5748 13.123 15.0418 10.5 15.0418C7.877 15.0418 5.75 13.5788 5.75 11.7748C5.75 9.97079 7.877 8.50879 10.5 8.50879C13.123 8.50879 15.25 9.97079 15.25 11.7748Z" fill="#F9CB73" stroke="black" stroke-width="1.5" stroke-linecap="round" stroke-linejoin="round"/>
<path fill-rule="evenodd" clip-rule="evenodd" d="M17.9001 5.55288C17.9103 6.13141 17.5696 6.65864 17.038 6.8871C16.5064 7.11556 15.8894 6.9999 15.4767 6.59439C15.0639 6.18888 14.9374 5.57405 15.1564 5.03849C15.3754 4.50293 15.8965 4.15297 16.4751 4.15288C17.2551 4.14623 17.893 4.77289 17.9001 5.55288Z" fill="#F9CB73" stroke="black" stroke-width="1.5" stroke-linecap="round" stroke-linejoin="round"/>
<path fill-rule="evenodd" clip-rule="evenodd" d="M3.10007 5.55288C3.08992 6.13141 3.4306 6.65864 3.9622 6.8871C4.49381 7.11556 5.11078 6.9999 5.52353 6.59439C5.93627 6.18888 6.06284 5.57405 5.84382 5.03849C5.62481 4.50293 5.10369 4.15297 4.52507 4.15288C3.74507 4.14623 3.10722 4.77289 3.10007 5.55288Z" fill="#F9CB73" stroke="black" stroke-width="1.5" stroke-linecap="round" stroke-linejoin="round"/>
<path fill-rule="evenodd" clip-rule="evenodd" d="M17.15 14.1088C18.577 14.2366 19.844 13.199 20 11.7748C19.8435 10.351 18.5767 9.31399 17.15 9.4418M3.85 14.1088C2.42296 14.2366 1.15603 13.199 1 11.7748C1.15653 10.351 2.42331 9.31399 3.85 9.4418" fill="#F9CB73"/>
<path d="M17.2169 13.3618C16.8043 13.3248 16.4399 13.6294 16.403 14.0419C16.366 14.4545 16.6705 14.8189 17.0831 14.8558L17.2169 13.3618ZM20 11.7748L20.7455 11.8565C20.7515 11.8021 20.7515 11.7472 20.7455 11.6928L20 11.7748ZM17.0831 8.69479C16.6705 8.73175 16.366 9.09616 16.403 9.50872C16.4399 9.92128 16.8044 10.2258 17.2169 10.1888L17.0831 8.69479ZM3.91689 14.8558C4.32945 14.8189 4.63395 14.4545 4.59701 14.0419C4.56007 13.6294 4.19567 13.3248 3.78311 13.3618L3.91689 14.8558ZM1 11.7748L0.254491 11.6928C0.248513 11.7472 0.248503 11.8021 0.25446 11.8565L1 11.7748ZM3.78308 10.1888C4.19564 10.2258 4.56005 9.92128 4.59701 9.50872C4.63397 9.09616 4.32948 8.73175 3.91692 8.69479L3.78308 10.1888ZM17.15 14.1088L17.0831 14.8558C18.9169 15.02 20.545 13.6867 20.7455 11.8565L20 11.7748L19.2545 11.6931C19.1429 12.7114 18.2371 13.4531 17.2169 13.3618L17.15 14.1088ZM20 11.7748L20.7455 11.6928C20.5444 9.86314 18.9165 8.53055 17.0831 8.69479L17.15 9.4418L17.2169 10.1888C18.2369 10.0974 19.1426 10.8388 19.2545 11.8568L20 11.7748ZM3.85 14.1088L3.78311 13.3618C2.76287 13.4531 1.85709 12.7114 1.74554 11.6931L1 11.7748L0.25446 11.8565C0.454964 13.6867 2.08306 15.02 3.91689 14.8558L3.85 14.1088ZM1 11.7748L1.74551 11.8568C1.85742 10.8388 2.76309 10.0974 3.78308 10.1888L3.85 9.4418L3.91692 8.69479C2.08354 8.53055 0.455639 9.86314 0.254491 11.6928L1 11.7748Z" fill="black"/>
</svg>
